<?xml version="1.0" encoding="UTF-8"?>
<svg version="1.1" xmlns="http://www.w3.org/2000/svg" width="1024" height="1024">
<path d="M0 0 C337.92 0 675.84 0 1024 0 C1024 337.92 1024 675.84 1024 1024 C686.08 1024 348.16 1024 0 1024 C0 686.08 0 348.16 0 0 Z " fill="#FEFEFE" transform="translate(0,0)"/>
<path d="M0 0 C1.07749512 0.24137695 2.15499023 0.48275391 3.26513672 0.73144531 C18.79928949 4.32511662 33.49638354 9.39813179 48 16 C48.72864258 16.33112793 49.45728516 16.66225586 50.20800781 17.00341797 C69.99481464 26.14471845 87.68494323 38.13227557 103.6953125 52.8828125 C105.98848406 54.98942095 108.33291729 57.02503281 110.6875 59.0625 C114.84762961 62.77327763 118.45916697 66.70091393 122 71 C122.62382568 71.73138184 122.62382568 71.73138184 123.26025391 72.47753906 C155.7034499 110.53964484 172.49522731 158.67675383 172.375 208.4375 C172.3737915 209.3644165 172.37258301 210.29133301 172.37133789 211.24633789 C172.2673299 240.69074651 165.94065941 268.01167286 154 295 C153.73316406 295.6197168 153.46632813 296.23943359 153.19140625 296.87792969 C144.27154641 317.48198382 132.07272599 336.84614486 119.66796875 355.5234375 C92.64750077 396.34572726 86.83660007 443.46730639 96.1484375 491.05859375 C99.52754921 507.17182137 104.46906706 522.82278063 109.51171875 538.4765625 C109.82087471 539.4391674 109.82087471 539.4391674 110.13627625 540.42121887 C111.21964529 543.75053132 112.38043281 547.03696596 113.62841797 550.30712891 C114.77254563 553.38759794 115.43160229 555.51805681 115.4375 558.75 C115.45683594 559.46671875 115.47617187 560.1834375 115.49609375 560.921875 C114.78474621 563.90169304 113.30691383 565.01816125 111 567 C108.45117187 568.06567383 108.45117187 568.06567383 105.46875 568.89453125 C104.31246094 569.22533691 103.15617187 569.55614258 101.96484375 569.89697266 C101.32981934 570.07294983 100.69479492 570.248927 100.04052734 570.43023682 C97.08904868 571.25435901 94.15093037 572.12271207 91.21084595 572.9864502 C88.7269208 573.71515726 86.24137888 574.43809993 83.75537109 575.15966797 C74.83071802 577.75196831 65.91445226 580.3728635 57 583 C56.29500366 583.20751892 55.59000732 583.41503784 54.86364746 583.62884521 C-5.71048809 601.48668855 -64.85462967 626.07919181 -121.390625 654.1484375 C-122.80843072 654.84855405 -124.22631758 655.54850629 -125.64428711 656.24829102 C-128.3669612 657.59229085 -131.07942427 658.95445975 -133.78735352 660.32788086 C-135.03108934 660.94450044 -136.27513346 661.56049868 -137.51953125 662.17578125 C-138.60339111 662.72145752 -139.68725098 663.26713379 -140.80395508 663.8293457 C-144.44611642 665.16340449 -147.14892406 665.33661342 -151 665 C-154.40918784 662.87872756 -156.78269305 660.87324937 -158 657 C-158.48761565 650.84975097 -156.95872972 646.32341775 -154.8125 640.6875 C-152.34603438 633.93202012 -150.05339457 627.1797792 -148.125 620.25 C-147.92237549 619.53674561 -147.71975098 618.82349121 -147.51098633 618.08862305 C-139.74678962 589.63553964 -146.57964635 551.69294599 -158 525 C-161.63639246 519.01106962 -164.90252797 515.90685313 -171.73469543 513.90658569 C-175.68764663 512.97025869 -179.42342572 512.74870431 -183.49487305 512.74462891 C-184.19692368 512.74100845 -184.8989743 512.737388 -185.62229919 512.73365784 C-187.13251646 512.7268161 -188.64275818 512.72424849 -190.15299034 512.72560501 C-192.55592026 512.72658044 -194.95841512 512.71350754 -197.36128235 512.69662476 C-204.18833044 512.65067082 -211.01533157 512.62578203 -217.8425293 512.61914062 C-222.03410201 512.61408268 -226.22521831 512.58961946 -230.41663551 512.55381393 C-231.99957329 512.54411516 -233.58257464 512.54162881 -235.16553307 512.54698563 C-248.6879671 512.59059061 -261.26692114 510.9779842 -272 502 C-278.77670246 495.22329754 -281.47893767 487.90434453 -281.50390625 478.43579102 C-281.48199219 477.42572998 -281.46007812 476.41566895 -281.4375 475.375 C-281.4271875 474.32046631 -281.416875 473.26593262 -281.40625 472.17944336 C-281.25413292 464.86943483 -280.34102753 458.18538783 -278.6875 451.0625 C-277.32965842 445.01393294 -276.87141714 440.37413201 -280.125 434.9375 C-281.0582051 433.60701615 -282.01801399 432.29489865 -283 431 C-283.53882813 430.27167969 -284.07765625 429.54335938 -284.6328125 428.79296875 C-285.66579464 427.40817386 -286.70911433 426.03099125 -287.765625 424.6640625 C-290.25548301 421.30748176 -290.44569941 418.56134487 -290.42578125 414.46484375 C-289.68472486 410.17487513 -287.1131399 406.95990244 -284 404 C-283.34 404 -282.68 404 -282 404 C-282 403.34 -282 402.68 -282 402 C-283.3303125 401.62875 -283.3303125 401.62875 -284.6875 401.25 C-289.42650192 399.46169739 -292.19956335 397.20065497 -295 393 C-296.2437012 384.7522973 -294.2349457 378.45643353 -291.0625 370.921875 C-289.60656164 366.91804451 -289.55883485 364.98439777 -291 361 C-293.89080202 357.49161754 -296.1529407 356.3710818 -300.5625 355.4375 C-301.62082031 355.19644531 -302.67914063 354.95539063 -303.76953125 354.70703125 C-304.83558594 354.47371094 -305.90164063 354.24039062 -307 354 C-315.54270207 352.04253317 -322.81210098 350.00530903 -328.4375 342.9375 C-330.66718995 338.74568289 -330.66718995 338.74568289 -331 336 C-331.2165625 334.4840625 -331.2165625 334.4840625 -331.4375 332.9375 C-330.45994342 324.1394908 -324.39840869 317.01477562 -319.2421875 310.09765625 C-314.53578775 303.59560921 -310.29579281 296.77728621 -306 290 C-305.11852295 288.61095459 -305.11852295 288.61095459 -304.21923828 287.19384766 C-297.59493264 276.73287139 -291.0333471 266.23261774 -284.75 255.5625 C-284.30849609 254.82467285 -283.86699219 254.0868457 -283.41210938 253.32666016 C-279.06019379 245.83416926 -276.16488668 238.75999079 -277 230 C-277.8069498 227.26693789 -278.89542649 224.68660251 -280 222.0625 C-291.35609796 192.35212097 -274.6870225 152.73357199 -262.62109375 125.59375 C-253.34754297 105.24869644 -241.27132604 86.54174901 -226 70.15234375 C-224.15918281 68.17130806 -222.42275357 66.13562746 -220.6875 64.0625 C-190.47831143 29.54763397 -144.83841696 9.6445834 -101 0 C-100.02885254 -0.22445801 -99.05770508 -0.44891602 -98.05712891 -0.68017578 C-67.26751011 -7.55337662 -30.70353141 -6.98011206 0 0 Z " fill="#2A9E40" transform="translate(582,238)"/>
<path d="M0 0 C4.78531344 1.77406742 8.83124297 -0.60098414 13.27734375 -2.546875 C27.93400137 -8.95677096 43.76111437 -9.29217771 58.7734375 -3.66015625 C65.98129319 -0.57994235 72.70027489 2.55326098 77.65234375 8.765625 C80.46513307 11.85969325 82.79727297 12.29305721 86.93164062 12.52050781 C88.33648136 12.55913111 89.74144232 12.59359165 91.14648438 12.62402344 C105.60308361 12.97646123 118.7715943 19.71253126 129.234375 29.52734375 C135.19168794 36.02135155 140.85494868 43.35480738 142.4765625 52.18359375 C143.96491509 54.92794008 146.5068189 55.01119188 149.40234375 55.890625 C165.9667717 66.05841507 177.15008398 81.1781783 182.21484375 99.953125 C184.43585153 110.50604898 183.88424418 121.3824598 182.52734375 132.015625 C182.12149369 136.44661817 182.35326653 138.65723422 185.08984375 142.203125 C185.92515625 143.13125 185.92515625 143.13125 186.77734375 144.078125 C194.64075446 152.84885233 196.78978726 167.30139547 196.60546875 178.65234375 C195.53250382 195.75788076 189.50294752 211.44494698 177.40234375 223.890625 C175.85740234 225.00050781 175.85740234 225.00050781 174.28125 226.1328125 C170.54128542 229.71546513 170.20720585 232.3661033 169.46484375 237.328125 C166.19490565 254.58486942 157.0788871 267.93117736 142.90625 278.30078125 C129.70596212 286.68224329 115.9704461 291.1046218 100.27734375 291.015625 C99.58769531 291.01949219 98.89804687 291.02335937 98.1875 291.02734375 C94.46644677 291.02022893 91.01961153 290.77734823 87.40234375 289.890625 C88.25260544 295.49563954 89.20076485 301.06555944 90.42578125 306.6015625 C90.60657227 307.42293701 90.78736328 308.24431152 90.97363281 309.09057617 C91.33463151 310.71236441 91.70340659 312.33244716 92.08105469 313.95043945 C93.81668962 321.76817884 94.73022774 328.93940478 90.6640625 336.1015625 C87.02060702 341.26782445 82.63737314 343.72816189 76.40234375 344.890625 C69.04518315 345.9063524 63.47045021 344.13156787 57.40234375 339.890625 C51.50422297 334.46435388 46.74353592 327.87450427 41.84008789 321.55688477 C38.11541201 316.76013829 34.27824922 312.0657188 30.40234375 307.390625 C25.69667605 301.70869354 21.07300904 295.97595965 16.53759766 290.1574707 C12.83799974 285.42031432 9.06856395 280.7422039 5.27734375 276.078125 C4.70814209 275.37743896 4.13894043 274.67675293 3.55249023 273.95483398 C1.0783486 270.83306015 1.0783486 270.83306015 -1.59765625 267.890625 C-4.4333788 267.72702562 -7.25954758 267.6115572 -10.09765625 267.515625 C-33.77951307 266.43421077 -55.06251895 260.28361521 -73.59765625 244.890625 C-74.20222656 244.43171875 -74.80679688 243.9728125 -75.4296875 243.5 C-81.55467877 238.68849444 -87.14245248 231.98277519 -89.76171875 224.6171875 C-91.25622248 221.79349508 -91.25622248 221.79349508 -93.43164062 221.29394531 C-95.86938408 220.98204189 -98.26654829 220.8509591 -100.72265625 220.765625 C-102.54228038 220.64150375 -104.3613207 220.50853893 -106.1796875 220.3671875 C-107.09186035 220.29661133 -108.0040332 220.22603516 -108.94384766 220.15332031 C-132.4373377 217.82774577 -153.35853003 206.85727955 -168.59765625 188.890625 C-182.09047954 171.64952724 -187.66210446 150.04562542 -185.19921875 128.38671875 C-181.95502704 108.52131105 -171.7654559 91.08243607 -156.59765625 77.890625 C-155.37762159 77.18704673 -154.14904722 76.49794297 -152.91015625 75.828125 C-148.02120536 72.59510909 -146.86730522 66.23891094 -145.04296875 60.9609375 C-139.12928965 43.92859675 -125.54467963 29.90637971 -109.41015625 22.078125 C-100.83449029 18.13045755 -91.74316497 15.99352882 -82.28515625 15.765625 C-77.31809987 14.58700145 -75.04642828 11.86237168 -71.42578125 8.375 C-51.88237067 -8.79296841 -22.8928153 -12.27534626 0 0 Z " fill="#299E3F" transform="translate(524.59765625,273.109375)"/>
<path d="M0 0 C4.78531344 1.77406742 8.83124297 -0.60098414 13.27734375 -2.546875 C27.93400137 -8.95677096 43.76111437 -9.29217771 58.7734375 -3.66015625 C65.98129319 -0.57994235 72.70027489 2.55326098 77.65234375 8.765625 C80.46513307 11.85969325 82.79727297 12.29305721 86.93164062 12.52050781 C88.33648136 12.55913111 89.74144232 12.59359165 91.14648438 12.62402344 C105.60308361 12.97646123 118.7715943 19.71253126 129.234375 29.52734375 C135.19168794 36.02135155 140.85494868 43.35480738 142.4765625 52.18359375 C143.96491509 54.92794008 146.5068189 55.01119188 149.40234375 55.890625 C165.9667717 66.05841507 177.15008398 81.1781783 182.21484375 99.953125 C184.43585153 110.50604898 183.88424418 121.3824598 182.52734375 132.015625 C182.12149369 136.44661817 182.35326653 138.65723422 185.08984375 142.203125 C185.92515625 143.13125 185.92515625 143.13125 186.77734375 144.078125 C194.64075446 152.84885233 196.78978726 167.30139547 196.60546875 178.65234375 C195.53250382 195.75788076 189.50294752 211.44494698 177.40234375 223.890625 C175.85740234 225.00050781 175.85740234 225.00050781 174.28125 226.1328125 C170.54128542 229.71546513 170.20720585 232.3661033 169.46484375 237.328125 C166.19490565 254.58486942 157.0788871 267.93117736 142.90625 278.30078125 C129.70596212 286.68224329 115.9704461 291.1046218 100.27734375 291.015625 C99.58769531 291.01949219 98.89804687 291.02335937 98.1875 291.02734375 C94.46644677 291.02022893 91.01961153 290.77734823 87.40234375 289.890625 C88.25260544 295.49563954 89.20076485 301.06555944 90.42578125 306.6015625 C90.60657227 307.42293701 90.78736328 308.24431152 90.97363281 309.09057617 C91.33463151 310.71236441 91.70340659 312.33244716 92.08105469 313.95043945 C93.81668962 321.76817884 94.73022774 328.93940478 90.6640625 336.1015625 C87.02060702 341.26782445 82.63737314 343.72816189 76.40234375 344.890625 C69.04518315 345.9063524 63.47045021 344.13156787 57.40234375 339.890625 C51.50422297 334.46435388 46.74353592 327.87450427 41.84008789 321.55688477 C38.11541201 316.76013829 34.27824922 312.0657188 30.40234375 307.390625 C25.69667605 301.70869354 21.07300904 295.97595965 16.53759766 290.1574707 C12.83799974 285.42031432 9.06856395 280.7422039 5.27734375 276.078125 C4.70814209 275.37743896 4.13894043 274.67675293 3.55249023 273.95483398 C1.0783486 270.83306015 1.0783486 270.83306015 -1.59765625 267.890625 C-4.4333788 267.72702562 -7.25954758 267.6115572 -10.09765625 267.515625 C-33.77951307 266.43421077 -55.06251895 260.28361521 -73.59765625 244.890625 C-74.20222656 244.43171875 -74.80679688 243.9728125 -75.4296875 243.5 C-81.55467877 238.68849444 -87.14245248 231.98277519 -89.76171875 224.6171875 C-91.25622248 221.79349508 -91.25622248 221.79349508 -93.43164062 221.29394531 C-95.86938408 220.98204189 -98.26654829 220.8509591 -100.72265625 220.765625 C-102.54228038 220.64150375 -104.3613207 220.50853893 -106.1796875 220.3671875 C-107.09186035 220.29661133 -108.0040332 220.22603516 -108.94384766 220.15332031 C-132.4373377 217.82774577 -153.35853003 206.85727955 -168.59765625 188.890625 C-182.09047954 171.64952724 -187.66210446 150.04562542 -185.19921875 128.38671875 C-181.95502704 108.52131105 -171.7654559 91.08243607 -156.59765625 77.890625 C-155.37762159 77.18704673 -154.14904722 76.49794297 -152.91015625 75.828125 C-148.02120536 72.59510909 -146.86730522 66.23891094 -145.04296875 60.9609375 C-139.12928965 43.92859675 -125.54467963 29.90637971 -109.41015625 22.078125 C-100.83449029 18.13045755 -91.74316497 15.99352882 -82.28515625 15.765625 C-77.31809987 14.58700145 -75.04642828 11.86237168 -71.42578125 8.375 C-51.88237067 -8.79296841 -22.8928153 -12.27534626 0 0 Z M-64.09765625 29.765625 C-64.70609375 30.52617187 -65.31453125 31.28671875 -65.94140625 32.0703125 C-67.59765625 33.890625 -67.59765625 33.890625 -70.59765625 34.890625 C-72.58153331 34.9652536 -74.56570609 35.03613869 -76.55053711 35.07836914 C-92.02800781 35.48672455 -104.73477133 39.88901666 -115.84375 51.171875 C-122.78478396 59.25444007 -127.09651459 68.35195807 -128.91015625 78.828125 C-130.0316525 84.32345664 -130.0316525 84.32345664 -132.49609375 86.79296875 C-134.78515625 88.265625 -134.78515625 88.265625 -137.19921875 89.58203125 C-141.18693989 91.75774229 -144.33378984 94.76275303 -147.59765625 97.890625 C-148.26796875 98.52355469 -148.93828125 99.15648437 -149.62890625 99.80859375 C-161.12288536 111.58992234 -165.05253553 126.72864918 -165.03149414 142.73974609 C-164.7077893 158.16206532 -158.3967263 170.96503352 -147.91015625 182.140625 C-128.75115944 200.34744275 -103.51122363 201.09859378 -78.59765625 201.890625 C-78.0871875 203.23253906 -78.0871875 203.23253906 -77.56640625 204.6015625 C-71.11018779 220.70776707 -60.93611846 231.69724844 -45.16015625 239.265625 C-44.15964233 239.74829834 -44.15964233 239.74829834 -43.13891602 240.24072266 C-33.09711674 244.79172144 -23.63986698 246.11478745 -12.72143555 245.84643555 C6.4359854 245.39943562 6.4359854 245.39943562 11.54296875 249.34765625 C13.99607655 251.94615165 15.72959949 254.87992029 17.37451172 258.03808594 C19.13536477 261.21180398 21.4838087 263.90401069 23.77734375 266.703125 C24.69413525 267.87417072 25.60816049 269.04738689 26.51953125 270.22265625 C29.59452269 274.15511766 32.74516071 278.02405136 35.90234375 281.890625 C41.35846616 288.57911172 46.72028125 295.33513283 52.03320312 302.13769531 C54.44439071 305.22477214 56.86033806 308.30810265 59.27734375 311.390625 C59.71771973 311.95410645 60.1580957 312.51758789 60.61181641 313.09814453 C63.4768389 316.75276592 66.41470613 320.33544332 69.40234375 323.890625 C71.05234375 323.560625 72.70234375 323.230625 74.40234375 322.890625 C73.66073852 317.11936466 72.52183145 311.48018978 71.30078125 305.79296875 C70.8888052 303.83799965 70.47736287 301.88291802 70.06640625 299.92773438 C69.42181586 296.86986647 68.7740542 293.81282447 68.1171875 290.75756836 C67.48101843 287.79219196 66.8585506 284.82420585 66.23828125 281.85546875 C65.93994888 280.49118996 65.93994888 280.49118996 65.6355896 279.09934998 C64.67795722 274.45889958 63.91621719 270.52583835 65.40234375 265.890625 C68.97451678 263.50917631 71.28124726 263.15574416 75.40234375 263.890625 C78.5464552 265.0346865 81.58268606 266.32489991 84.6328125 267.69921875 C95.45193012 272.35342308 110.70168069 271.16830661 121.5078125 267.21484375 C134.33288588 261.34750249 142.83538468 252.88583645 148.40234375 239.890625 C149.872738 235.03889611 151.28008835 230.01531776 151.47924805 224.92504883 C151.69462083 220.91759373 152.18874647 218.63683401 155.1328125 215.80078125 C156.27127316 214.83495534 157.42435416 213.88615574 158.58984375 212.953125 C167.74509612 205.0393681 174.2274066 196.3213439 175.62988281 183.87060547 C176.29446535 174.71065186 175.82149858 166.16444408 171.40234375 157.890625 C170.74234375 157.230625 170.08234375 156.570625 169.40234375 155.890625 C168.97566406 156.3753125 168.54898437 156.86 168.109375 157.359375 C157.60952049 168.61695097 142.79166616 176.5307344 127.21484375 177.515625 C123.40234375 176.890625 123.40234375 176.890625 120.33984375 174.765625 C118.40234375 171.890625 118.40234375 171.890625 117.77734375 168.890625 C118.62088342 164.84163458 120.25027178 163.52091572 123.40234375 160.890625 C126.6015625 159.95703125 126.6015625 159.95703125 130.08984375 159.453125 C140.50367704 157.49441027 148.94106491 152.39011841 155.40234375 143.890625 C162.63078417 131.34526507 165.47486503 117.90543832 162.28515625 103.6640625 C157.63078203 89.04191339 149.65100189 79.47222706 136.40234375 71.890625 C135.6753125 71.56578125 134.94828125 71.2409375 134.19921875 70.90625 C128.01389661 67.93534724 126.22016862 63.00294801 123.47192383 57.05371094 C118.73121164 46.97926488 111.52769615 39.12710991 101.078125 34.96484375 C94.49380613 32.66849453 89.09487142 31.85061825 82.08984375 32.265625 C77.18750993 32.3994165 73.72805765 32.18400257 69.96484375 28.765625 C68.76627742 27.48422039 67.57855576 26.19257905 66.40234375 24.890625 C55.2109778 15.47214871 45.13069341 12.95166728 30.65966797 13.65087891 C24.74717503 14.27883349 19.43284982 16.76464906 14.609375 20.1484375 C11.31652023 24.90123111 12.95327978 33.33896693 13.90625 38.75390625 C16.45754908 48.12810799 21.41061593 55.32063288 29.40234375 60.890625 C31.72822052 62.03283029 34.08078223 63.02301854 36.4765625 64.0078125 C39.11278557 65.21630421 40.31648516 66.17597852 41.40234375 68.890625 C41.1923081 74.8766409 41.1923081 74.8766409 39.09375 77.5703125 C36.59402616 79.52159808 34.14396897 79.47852318 31.0625 79.36328125 C20.73839369 77.52889525 11.72874667 70.46172717 5.43359375 62.35546875 C-1.92481335 51.52052609 -4.1137255 40.98906004 -4.65161133 28.10009766 C-4.91348922 22.7039901 -4.91348922 22.7039901 -7.93359375 18.375 C-8.81273437 17.88515625 -9.691875 17.3953125 -10.59765625 16.890625 C-11.19964844 16.54515625 -11.80164063 16.1996875 -12.421875 15.84375 C-30.62137377 8.97601461 -51.58997685 15.38293699 -64.09765625 29.765625 Z " fill="#FCFDFC" transform="translate(524.59765625,273.109375)"/>
<path d="M0 0 C4.79876079 2.3993804 7.6704397 5.16168244 10 10 C11.08973143 16.82750102 10.0341839 20.37269416 6 26 C4.53513718 27.63383644 3.0224979 29.22582051 1.4703064 30.77693176 C0.56738358 31.68404907 -0.33553925 32.59116638 -1.26582336 33.52577209 C-2.25866173 34.51312837 -3.25160024 35.50038395 -4.24462891 36.48754883 C-5.29656972 37.54056365 -6.34807717 38.59401155 -7.39918518 39.64785767 C-10.24360601 42.49710884 -13.09420937 45.34009862 -15.94612551 48.18184495 C-18.93135762 51.1582733 -21.91129614 54.13999294 -24.89193726 57.12101746 C-29.89362969 62.12177472 -34.89917272 67.11865097 -39.90722656 72.11303711 C-45.70120918 77.89126572 -51.48991966 83.67473322 -57.27566397 89.46121007 C-62.84218317 95.0283389 -68.41155055 100.59260871 -73.98252487 106.15527916 C-76.35408111 108.52330076 -78.72478254 110.89217333 -81.09483719 113.26169777 C-83.881539 116.04739736 -86.670769 118.83054071 -89.46200371 121.61169815 C-90.48762104 122.63438776 -91.51238718 123.6579318 -92.53625298 124.68237495 C-93.92994889 126.07655946 -95.32701667 127.46737091 -96.72427368 128.85798645 C-97.50628962 129.63832654 -98.28830555 130.41866663 -99.09401894 131.22265339 C-101.99133691 133.92443169 -103.87018458 134.20080834 -107.75 134.3125 C-108.59046875 134.34988281 -109.4309375 134.38726562 -110.296875 134.42578125 C-116.48145557 133.45162044 -120.93148482 128.35574759 -125.1730957 124.06982422 C-125.7575798 123.48723846 -126.3420639 122.90465271 -126.94425964 122.30441284 C-128.85967645 120.39267729 -130.76783786 118.47387937 -132.67578125 116.5546875 C-134.00965984 115.21961592 -135.34390928 113.88491476 -136.67851257 112.55056763 C-139.46627701 109.76124313 -142.25066106 106.96860288 -145.0324707 104.17333984 C-148.60302692 100.58573675 -152.18018853 97.00480959 -155.75965595 93.42609978 C-158.51108311 90.67440122 -161.25990044 87.92010834 -164.00783348 85.16492081 C-165.32657942 83.84298826 -166.64593582 82.52166441 -167.96590614 81.20095444 C-169.80443108 79.36026914 -171.63963021 77.51633397 -173.47387695 75.67138672 C-174.02189972 75.12381714 -174.56992249 74.57624756 -175.134552 74.01208496 C-178.95932104 70.15453031 -180.19124555 68.2226357 -180.4375 62.8125 C-180.40326298 57.59477748 -179.29393156 55.04853032 -175.703125 51.33984375 C-171.54595073 48.06940619 -168.29309131 47.46171953 -163 48 C-155.9477784 51.18200508 -151.18607078 56.51468689 -145.8671875 62.015625 C-144.90371809 62.99741926 -143.93919108 63.97817668 -142.97366333 64.95794678 C-138.89786847 69.09758387 -134.84117045 73.2557105 -130.79150391 77.42089844 C-128.30417837 79.97770314 -125.80480287 82.52221544 -123.29782486 85.05974579 C-121.88735982 86.49509677 -120.49126544 87.94452365 -119.09542847 89.394104 C-118.23748688 90.26210632 -117.37954529 91.13010864 -116.49560547 92.02441406 C-115.74616669 92.79400452 -114.99672791 93.56359497 -114.22457886 94.35650635 C-111.47983762 96.38429007 -110.34999325 96.41239404 -107 96 C-104.84707674 94.5747542 -104.84707674 94.5747542 -102.90846252 92.48954773 C-102.12774384 91.71136688 -101.34702515 90.93318604 -100.54264832 90.13142395 C-99.70043228 89.2665184 -98.85821625 88.40161285 -97.99047852 87.51049805 C-96.64321686 86.15710327 -96.64321686 86.15710327 -95.26873779 84.77636719 C-93.31561779 82.8142207 -91.37062657 80.84447108 -89.43152046 78.86847496 C-86.36327663 75.74214906 -83.27711342 72.63393354 -80.18821716 69.5280304 C-74.74583123 64.05107058 -69.31883303 58.55906302 -63.8951416 53.06359863 C-55.73655291 44.79724908 -47.56634546 36.54242881 -39.38124412 28.30233032 C-36.3153193 25.21464984 -33.25763568 22.11910139 -30.20629704 19.01700819 C-28.76230153 17.55113856 -27.31490783 16.08872674 -25.8659668 14.62774658 C-24.10242781 12.84932724 -22.34433895 11.06547947 -20.59288025 9.27516174 C-14.51836963 3.17660386 -9.01312946 -1.60433704 0 0 Z " fill="#FDFEFE" transform="translate(641,359)"/>
<path d="M0 0 C2.97361628 1.78152067 5.42653612 3.85307225 7 7 C7.10733875 9.18919041 7.14890628 11.38170012 7.16113281 13.57348633 C7.16609772 14.24849686 7.17106262 14.92350739 7.17617798 15.61897278 C7.19080697 17.85666924 7.19760337 20.09429478 7.203125 22.33203125 C7.20887658 23.88661196 7.21463432 25.44119265 7.22039795 26.99577332 C7.23091054 30.25833466 7.23675127 33.52087136 7.24023438 36.78344727 C7.24571461 40.95989704 7.26973123 45.13602005 7.29820633 49.31236744 C7.3168512 52.52517135 7.32203932 55.73789691 7.32357025 58.95075035 C7.32659399 60.49010692 7.33461315 62.0294622 7.34775543 63.56876564 C7.36485249 65.72553799 7.36292707 67.88151705 7.35644531 70.03833008 C7.36009094 71.26473709 7.36373657 72.4911441 7.36749268 73.75471497 C6.96682244 77.29298717 6.1006639 79.15835181 4 82 C0.57080428 84.57189679 -2.83939486 84.502142 -7 84 C-10.47565519 81.98287868 -12.70453512 79.88639464 -14 76 C-14.10957167 73.83945568 -14.15900459 71.6756973 -14.17700195 69.51245117 C-14.18357315 68.85840805 -14.19014435 68.20436493 -14.19691467 67.53050232 C-14.21661015 65.3679899 -14.22830181 63.2055468 -14.23828125 61.04296875 C-14.24235678 60.30299463 -14.2464323 59.56302052 -14.25063133 58.80062294 C-14.2714761 54.88393052 -14.28578467 50.96727297 -14.29516602 47.05053711 C-14.30622719 43.01199227 -14.34062759 38.97399892 -14.38033772 34.93564892 C-14.40652288 31.82403054 -14.41485949 28.71254322 -14.41844749 25.60082436 C-14.4233086 24.11251412 -14.43490913 22.62420955 -14.45348549 21.13600731 C-14.4779194 19.04880827 -14.47690536 16.96303166 -14.4699707 14.87573242 C-14.47583694 13.69009201 -14.48170319 12.5044516 -14.48774719 11.28288269 C-13.89296978 7.27961111 -12.51307608 5.1385599 -10 2 C-6.23124125 -0.51250583 -4.46849866 -0.53016086 0 0 Z " fill="#299E3F" transform="translate(537,109)"/>
<path d="M0 0 C2.71899867 2.16125535 3.80508091 3.75074583 4.34375 7.203125 C4.76942964 18.48363553 0.49860123 28.87972455 -7.00390625 37.23046875 C-16.64390796 46.42209829 -28.99912396 50.55065232 -42.21875 50.2578125 C-51.03797608 49.44029997 -59.3389368 47.58534002 -66.875 42.8125 C-68.80697204 39.69987837 -68.7096188 36.473753 -68 33 C-65.9375 30 -65.9375 30 -63 28 C-58.77478562 27.34996702 -55.72401852 28.02875976 -51.8125 29.5 C-44.12277562 32.25100872 -35.63209529 32.01535721 -28.03125 29.02734375 C-21.39548774 25.67117938 -18.2482302 21.56548049 -15.765625 14.6015625 C-14.82393229 11.40172912 -14.12160895 8.20232059 -13.58984375 4.91015625 C-12.85918253 2.54397521 -11.91918509 1.54179138 -10 0 C-6.16652698 -1.27782434 -3.91272241 -0.96101954 0 0 Z " fill="#FBFDFB" transform="translate(490,323)"/>
<path d="M0 0 C3.0625 1.9375 3.0625 1.9375 5 5 C6.00760888 13.30662934 3.23242593 18.52450893 -0.75 25.6875 C-1.33330078 26.77095703 -1.91660156 27.85441406 -2.51757812 28.97070312 C-4.3277578 32.32353862 -6.16283443 35.66189182 -8 39 C-9.12148308 41.06809409 -10.24133835 43.13707194 -11.359375 45.20703125 C-13.78348369 49.68483714 -16.21709978 54.15690949 -18.6875 58.609375 C-19.58012972 60.23523627 -20.45454135 61.87120424 -21.3125 63.515625 C-21.7353125 64.31484375 -22.158125 65.1140625 -22.59375 65.9375 C-22.96177734 66.64777344 -23.32980469 67.35804688 -23.70898438 68.08984375 C-25.65416971 70.96789406 -27.7520269 72.75219139 -31.18359375 73.43359375 C-35.02863786 73.4402576 -37.51029998 73.24485001 -41 71.5 C-43.67858652 68.15176684 -44.29539112 65.19472816 -44 61 C-42.68133036 57.22657612 -40.77653124 53.84784112 -38.8125 50.375 C-38.27020752 49.37807129 -37.72791504 48.38114258 -37.16918945 47.35400391 C-36.03216727 45.26888923 -34.8860984 43.18868456 -33.73144531 41.11328125 C-32.05925682 38.10654864 -30.41192347 35.08770704 -28.7734375 32.0625 C-26.76112008 28.34849557 -24.73637078 24.64184334 -22.69921875 20.94140625 C-21.04198763 17.92442538 -19.41295141 14.89748876 -17.83203125 11.83984375 C-17.22746094 10.67582031 -16.62289062 9.51179687 -16 8.3125 C-15.505 7.33925781 -15.01 6.36601562 -14.5 5.36328125 C-10.86770009 -0.35948293 -6.39608755 -1.17223669 0 0 Z " fill="#289D3E" transform="translate(669,141)"/>
<path d="M0 0 C5.05130151 2.72911171 7.45407719 5.77215178 9.8828125 10.8359375 C10.38801674 11.83762215 10.38801674 11.83762215 10.90342712 12.85954285 C11.99195385 15.02437761 13.0586057 17.1991902 14.125 19.375 C15.62015515 22.37418496 17.12471562 25.36862008 18.62890625 28.36328125 C18.99948654 29.10503098 19.37006683 29.8467807 19.75187683 30.61100769 C23.43070162 37.94165366 27.41117063 45.0929715 31.59619141 52.14794922 C34.59213501 57.4118402 35.71965125 60.92587939 35 67 C33.20636089 69.8100346 31.98119065 71.50940468 29 73 C21.85203058 73.58589913 21.85203058 73.58589913 18.56445312 71.32519531 C15.79733609 68.81624418 14.47012587 66.69597332 12.80078125 63.37109375 C12.23609131 62.26233887 11.67140137 61.15358398 11.08959961 60.01123047 C10.50315674 58.83189941 9.91671387 57.65256836 9.3125 56.4375 C8.69471433 55.21696521 8.07564386 53.99707993 7.45532227 52.77783203 C6.21399597 50.33610963 4.97765956 47.89196805 3.74511719 45.44580078 C1.35686569 40.73010665 -1.09385346 36.04897717 -3.5625 31.375 C-3.94301514 30.64982178 -4.32353027 29.92464355 -4.71557617 29.17749023 C-6.22532788 26.30899548 -7.73711279 23.45386801 -9.36206055 20.6484375 C-9.81492432 19.8646875 -10.26778809 19.0809375 -10.734375 18.2734375 C-11.15041992 17.56880371 -11.56646484 16.86416992 -11.99511719 16.13818359 C-13.72596603 12.45529385 -14.06317434 8.92615097 -13 5 C-9.10038687 0.33948675 -5.9976353 -0.96390567 0 0 Z " fill="#279C3D" transform="translate(407,141)"/>
<path d="M0 0 C2.75192367 1.55691421 5.1631955 3.46078013 7.625 5.4375 C8.32302734 5.97955078 9.02105469 6.52160156 9.74023438 7.08007812 C11.16361568 8.18686414 12.58261514 9.29930956 13.99707031 10.41748047 C16.81002157 12.63999998 19.65513713 14.81846551 22.5 17 C23.53125 17.79664063 24.5625 18.59328125 25.625 19.4140625 C30.22559445 22.9531945 34.87959927 26.42165613 39.53320312 29.890625 C50.80548758 38.30787071 50.80548758 38.30787071 52 42 C52.49276537 46.63199447 51.87025842 49.30966775 49 53 C45.56434662 55.57674003 42.1707372 55.32048823 38 55 C35.1484375 53.3828125 35.1484375 53.3828125 32.375 51.125 C31.86122803 50.71644775 31.34745605 50.30789551 30.81811523 49.88696289 C29.73642916 49.02656432 28.65988524 48.15966442 27.58837891 47.28662109 C25.11866856 45.28610257 22.58800424 43.36684111 20.0625 41.4375 C18.99065071 40.61098137 17.91905092 39.78413911 16.84765625 38.95703125 C11.00151604 34.45497776 5.12175406 29.99669169 -0.75366211 25.53295898 C-14.53592979 15.04960421 -14.53592979 15.04960421 -15.4375 9.125 C-14.81834123 4.70243735 -13.14449843 3.14449843 -10 0 C-6.10738474 -1.29753842 -3.99963561 -0.95249054 0 0 Z " fill="#289D3D" transform="translate(307,223)"/>
<path d="M0 0 C2.8100346 1.79363911 4.50940468 3.01880935 6 6 C6.53832051 9.36450321 6.64860252 11.85666053 4.9296875 14.88671875 C0.54249697 20.321103 -5.08826619 24.09391404 -10.77734375 28.0234375 C-15.86862571 31.56401885 -20.76778529 35.35163924 -25.6875 39.125 C-27.49735721 40.5026549 -29.30725194 41.88026053 -31.1171875 43.2578125 C-33.93924019 45.41066321 -36.7415539 47.58070208 -39.5078125 49.8046875 C-46.70813508 55.44059459 -46.70813508 55.44059459 -51.375 55.75 C-55.35721098 54.92609428 -57.18720062 53.89803572 -60 51 C-61.57422753 47.85154494 -61.66928343 44.40781928 -61 41 C-58.29168677 36.90544113 -55.08888604 34.43520344 -51.0625 31.6875 C-44.73659317 27.29907329 -38.60650801 22.68808443 -32.5 18 C-30.69452192 16.62432843 -28.88853999 15.24931785 -27.08203125 13.875 C-24.65410386 12.02790999 -22.22922095 10.17840285 -19.82177734 8.3046875 C-17.95606042 6.85261155 -16.07476802 5.42387632 -14.1875 4 C-13.17042969 3.21625 -12.15335938 2.4325 -11.10546875 1.625 C-6.97545091 -0.53611625 -4.62148453 -0.44693369 0 0 Z " fill="#279C3C" transform="translate(769,223)"/>
<path d="M0 0 C1.41796875 1.24609375 1.41796875 1.24609375 3.41796875 4.24609375 C3.63713647 8.27877978 3.32365274 12.05059089 0.85546875 15.30859375 C-3.51179932 16.98831224 -7.45985305 17.08588619 -11.7734375 15.37890625 C-13.13858769 14.69004593 -14.48953247 13.97186892 -15.8203125 13.21875 C-22.02106599 9.79527412 -30.69403468 10.36986561 -37.58203125 11.24609375 C-43.80809646 13.24980516 -48.79187926 16.52657956 -53.83203125 20.62109375 C-56.53302324 22.75937908 -58.36716256 23.69275492 -61.83203125 23.87109375 C-65.58203125 23.24609375 -65.58203125 23.24609375 -68.01953125 21.68359375 C-70.21827757 18.25354949 -70.7874934 16.35533672 -70.58203125 12.24609375 C-64.73861956 2.21753585 -53.35450651 -3.67605617 -42.58203125 -6.75390625 C-28.7233361 -10.16703944 -11.91312493 -8.02097815 0 0 Z " fill="#FBFDFB" transform="translate(639.58203125,489.75390625)"/>
<path d="M0 0 C3.51953419 3.14511566 4.86862673 4.91147864 5.4375 9.625 C4.75908222 14.8585086 4.75908222 14.8585086 3 17 C-2.49054201 19.66751922 -8.08591804 21.21866097 -13.9921875 22.69921875 C-14.93756378 22.9391304 -15.88294006 23.17904205 -16.85696411 23.42622375 C-18.84804862 23.92920486 -20.83991881 24.4290849 -22.83251953 24.92602539 C-25.861573 25.68413948 -28.88580126 26.45971152 -31.91015625 27.23632812 C-33.85389692 27.72503245 -35.79789934 28.21269714 -37.7421875 28.69921875 C-39.08324051 29.04601936 -39.08324051 29.04601936 -40.4513855 29.39982605 C-45.86304853 30.72835593 -51.42397478 31.91752222 -57 31 C-60.65305395 28.10799895 -62.74232841 25.88959163 -63.375 21.25 C-62.88352404 16.99054168 -61.28488874 14.62109227 -58 12 C-54.31017168 10.39326152 -50.50770923 9.47357237 -46.6015625 8.53515625 C-45.49324066 8.25272568 -44.38491882 7.9702951 -43.24301147 7.67930603 C-40.90391872 7.08834517 -38.56206774 6.5082095 -36.21777344 5.93823242 C-32.63790383 5.06564529 -29.06907364 4.15586703 -25.5 3.24023438 C-23.22191134 2.66964583 -20.94328127 2.10121369 -18.6640625 1.53515625 C-17.60031403 1.26445816 -16.53656555 0.99376007 -15.44058228 0.71485901 C-9.92608527 -0.60821 -5.52306287 -1.53753089 0 0 Z " fill="#289D3D" transform="translate(827,338)"/>
<path d="M0 0 C1.35933907 0.34276726 1.35933907 0.34276726 2.74613953 0.69245911 C4.64375384 1.17500435 6.54030114 1.66176395 8.43579102 2.15258789 C11.32922549 2.89581732 14.22941327 3.60714617 17.13085938 4.31835938 C18.98357271 4.79362884 20.83580519 5.27077761 22.6875 5.75 C23.54902176 5.95650681 24.41054352 6.16301361 25.298172 6.3757782 C31.05573399 7.91841468 33.74469335 9.6658813 37.01171875 14.70703125 C37.60249397 18.3255295 37.27448552 20.12894435 35.76171875 23.45703125 C33.85929053 25.90301039 32.95585736 26.80743334 30.01171875 27.70703125 C23.96183501 28.07833439 18.69419766 26.89781766 12.87890625 25.44140625 C11.92404327 25.20673645 10.9691803 24.97206665 9.98538208 24.73028564 C7.97570012 24.23341708 5.96707511 23.73225602 3.95947266 23.22705078 C0.89327336 22.45867381 -2.17788507 21.71307338 -5.25 20.96875 C-7.20737393 20.48184425 -9.16441741 19.9936078 -11.12109375 19.50390625 C-12.03577423 19.28393982 -12.95045471 19.06397339 -13.89285278 18.83734131 C-18.77076563 17.58692917 -22.34434536 16.39043546 -25.98828125 12.70703125 C-27.22274864 9.70279645 -27.38333504 6.92310292 -26.98828125 3.70703125 C-21.26000172 -7.12054025 -9.6718726 -2.46088389 0 0 Z " fill="#289D3D" transform="translate(262.98828125,340.29296875)"/>
<path d="M0 0 C11.07386977 1.79210717 20.158531 7.67669451 27.2109375 16.3203125 C32.04849057 23.83604713 34.69522871 32.04319876 34.74609375 40.9140625 C34.76027344 42.038125 34.77445312 43.1621875 34.7890625 44.3203125 C34.56629916 47.31062712 34.1814182 48.93345942 32.55859375 51.4140625 C29.12058983 53.96073207 25.707531 53.92358111 21.55859375 53.4140625 C18.68359375 51.7265625 18.68359375 51.7265625 16.55859375 48.4140625 C16.16543455 45.19889394 16.04964908 42.01309908 15.9140625 38.77734375 C15.21580991 32.17080004 12.29325735 27.31009015 7.87109375 22.4765625 C4.86829575 20.60689582 2.84652135 19.85145161 -0.50390625 18.9765625 C-5.68466501 17.58564989 -7.71144025 16.0550047 -10.44140625 11.4140625 C-11.13585748 7.63316137 -10.7186161 5.9684822 -9.00390625 2.5390625 C-5.7977117 -0.11973298 -4.06865008 -0.25387308 0 0 Z " fill="#FBFDFB" transform="translate(397.44140625,399.5859375)"/>
<path d="M0 0 C0.33 0.66 0.66 1.32 1 2 C0.67 2.99 0.34 3.98 0 5 C-0.5 8.5 -0.5 8.5 0 12 C2.62212277 14.390759 4.52107134 14.92017856 8 15.5 C12.08867211 14.81855465 13.40002016 13.16213765 16 10 C17.05287814 8.36622358 18.0727001 6.70818403 19 5 C19.33 5.66 19.66 6.32 20 7 C19.109375 8.875 19.109375 8.875 17.75 11 C17.31171875 11.70125 16.8734375 12.4025 16.421875 13.125 C14.60038616 15.5269633 12.93055128 16.85013594 9.9140625 17.3359375 C6.02897928 17.40223585 3.5269913 17.26349565 0 15.5 C-2.68741952 12.1407256 -3.33009566 9.27431556 -3 5 C-1.5625 2 -1.5625 2 0 0 Z " fill="#199128" transform="translate(628,197)"/>
<path d="M0 0 C0.78632812 0.15339844 1.57265625 0.30679688 2.3828125 0.46484375 C6.87830226 1.12994321 11.33883176 1.35413685 15.875 1.5625 C16.75414062 1.60568359 17.63328125 1.64886719 18.5390625 1.69335938 C20.69255797 1.79869339 22.84626064 1.89977649 25 2 C25 2.33 25 2.66 25 3 C18.07 3 11.14 3 4 3 C3.67 5.64 3.34 8.28 3 11 C0.43383368 7.15075052 0.44902324 4.5650696 0 0 Z " fill="#0E8B1D" transform="translate(611,562)"/>
<path d="M0 0 C0.33 0.66 0.66 1.32 1 2 C0.02501855 3.5027237 -0.95509389 5.00211963 -1.9375 6.5 C-2.75541016 7.75296875 -2.75541016 7.75296875 -3.58984375 9.03125 C-4.05519531 9.6809375 -4.52054688 10.330625 -5 11 C-5.33 11 -5.66 11 -6 11 C-6 9.35 -6 7.7 -6 6 C-5.01 6 -4.02 6 -3 6 C-2.690625 5.195625 -2.38125 4.39125 -2.0625 3.5625 C-1 1 -1 1 0 0 Z " fill="#19922B" transform="translate(710,577)"/>
<path d="M0 0 C0 0.66 0 1.32 0 2 C-3.72430357 2.69289369 -7.21083746 3.11144596 -11 3 C-7.72430636 -0.27569364 -4.48909309 -0.12469703 0 0 Z " fill="#1B952C" transform="translate(797,344)"/>
<path d="M0 0 C0.89203125 0.10183594 1.7840625 0.20367187 2.703125 0.30859375 C3.37859375 0.39238281 4.0540625 0.47617187 4.75 0.5625 C4.75 0.8925 4.75 1.2225 4.75 1.5625 C3.16870971 1.78581199 1.58478911 1.99054644 0 2.1875 C-1.32257813 2.36152344 -1.32257813 2.36152344 -2.671875 2.5390625 C-5.47859878 2.56457817 -6.88384866 2.01093844 -9.25 0.5625 C-5.98086376 -0.46865279 -3.38958652 -0.4013984 0 0 Z " fill="#32A245" transform="translate(414.25,469.4375)"/>
<path d="M0 0 C0.99 0 1.98 0 3 0 C3 1.98 3 3.96 3 6 C2.01 6 1.02 6 0 6 C0 4.02 0 2.04 0 0 Z " fill="#34A045" transform="translate(764,356)"/>
</svg>
